<?xml version="1.0" encoding="utf-8"?>
<!-- Generator: Adobe Illustrator 16.0.0, SVG Export Plug-In . SVG Version: 6.00 Build 0)  -->
<!DOCTYPE svg PUBLIC "-//W3C//DTD SVG 1.1//EN" "http://www.w3.org/Graphics/SVG/1.1/DTD/svg11.dtd">
<svg version="1.1" id="Layer_1" xmlns="http://www.w3.org/2000/svg" xmlns:xlink="http://www.w3.org/1999/xlink" x="0px" y="0px"
	 width="25px" height="23px" viewBox="-1 0 25 23" enable-background="new -1 0 25 23" xml:space="preserve">
<path fill="#22B6B7" d="M22.587,19.926c-0.71,2.158-3.491,3.234-5.479,3.055c-2.713-0.246-5.667-1.685-7.907-3.27
	c-3.295-2.331-6.382-5.936-8.18-9.762c-1.272-2.703-1.557-6.027,0.334-8.49c0.7-0.913,1.455-1.399,2.591-1.455
	c1.576-0.076,1.797,0.825,2.339,2.23c0.403,1.05,0.941,2.122,1.242,3.21C8.087,7.476,6.12,7.561,5.872,9.221
	c-0.155,1.047,1.114,2.452,1.688,3.198c1.124,1.463,2.475,2.726,3.999,3.685c0.873,0.551,2.281,1.543,3.281,0.996
	c1.54-0.844,1.395-3.439,3.547-2.561c1.115,0.453,2.194,1.107,3.258,1.682C23.29,17.105,23.214,18.021,22.587,19.926
	C22.117,21.35,23.057,18.504,22.587,19.926"/>
</svg>
