<?xml version="1.0" encoding="utf-8"?>
<!-- Generator: Adobe Illustrator 16.0.0, SVG Export Plug-In . SVG Version: 6.00 Build 0)  -->
<!DOCTYPE svg PUBLIC "-//W3C//DTD SVG 1.1//EN" "http://www.w3.org/Graphics/SVG/1.1/DTD/svg11.dtd">
<svg version="1.1" id="Layer_1" xmlns="http://www.w3.org/2000/svg" xmlns:xlink="http://www.w3.org/1999/xlink" x="0px" y="0px"
	 width="25px" height="27px" viewBox="-1 0 25 27" enable-background="new -1 0 25 27" xml:space="preserve">
<path fill="#2EBABB" d="M11.75,11.657c-0.787,0-1.429-0.606-1.429-1.35c0-0.744,0.642-1.35,1.429-1.35s1.43,0.606,1.43,1.35
	C13.18,11.051,12.537,11.657,11.75,11.657 M11.75,6.257c-2.367,0-4.286,1.813-4.286,4.05c0,2.237,1.919,4.05,4.286,4.05
	s4.286-1.813,4.286-4.05C16.036,8.07,14.117,6.257,11.75,6.257 M11.75,22.95c0,0-7.143-9.45-7.143-13.5
	c0-3.722,3.204-6.75,7.143-6.75c3.939,0,7.143,3.028,7.143,6.75C18.893,13.5,11.75,22.95,11.75,22.95 M11.75,0
	c-5.523,0-10,4.23-10,9.45c0,5.22,10,17.55,10,17.55s10-12.33,10-17.55C21.75,4.23,17.273,0,11.75,0"/>
</svg>
